<svg xmlns="http://www.w3.org/2000/svg" xmlns:xlink="http://www.w3.org/1999/xlink" version="1.1" id="Layer_1" viewBox="0 0 502 502" xml:space="preserve" fill="#000000"><g id="SVGRepo_bgCarrier" stroke-width="0"></g><g id="SVGRepo_tracerCarrier" stroke-linecap="round" stroke-linejoin="round"></g><g id="SVGRepo_iconCarrier"> <g> <g> <rect x="311.25" y="84.069" style="fill:#CCD7EB;" width="150.349" height="407.931"></rect> <rect x="40.401" y="142.661" style="fill:#CCD7EB;" width="270.849" height="349.339"></rect> <rect x="40.401" y="212.307" style="fill:#4D93E8;" width="270.849" height="59.697"></rect> <rect x="40.401" y="356.023" style="fill:#4D93E8;" width="270.849" height="59.697"></rect> <rect x="311.25" y="142.661" style="fill:#4D93E8;" width="150.349" height="40.904"></rect> <rect x="311.25" y="291.904" style="fill:#4D93E8;" width="150.349" height="40.904"></rect> <rect x="356.576" y="441.147" style="fill:#4D93E8;" width="59.697" height="50.853"></rect> </g> <g> <path d="M461.599,502c5.523,0,10-4.477,10-10V84.069c0-5.523-4.477-10-10-10h-33.115V43.165c0-5.523-4.477-10-10-10 s-10,4.477-10,10v30.904h-30.853V33.266h17.638c5.523,0,10-4.477,10-10s-4.477-10-10-10h-17.638V10c0-5.523-4.477-10-10-10 s-10,4.477-10,10v3.266h-17.638c-5.523,0-10,4.477-10,10s4.477,10,10,10h17.638v40.803H311.25c-5.523,0-10,4.477-10,10v48.592 H40.401c-5.523,0-10,4.477-10,10V492c0,5.523,4.477,10,10,10H461.599z M451.599,322.807H321.25v-20.903h130.349V322.807z M301.25,346.023H50.401v-64.019H301.25V346.023z M50.401,222.307H301.25v39.697H50.401V222.307z M451.599,173.564H321.25v-20.904 h130.349V173.564z M50.401,366.023H301.25v39.697H50.401V366.023z M321.25,193.564h130.349v88.339H321.25V193.564z M451.599,94.069v38.592H321.25V94.069H451.599z M301.25,202.307H50.401v-49.646H301.25V202.307z M50.401,425.72H301.25V482 H50.401V425.72z M366.576,482v-30.853h39.697V482H366.576z M321.25,342.807h130.349V482h-25.326v-40.853c0-5.523-4.477-10-10-10 h-59.697c-5.523,0-10,4.477-10,10V482H321.25V342.807z"></path> <path d="M390.846,354.867H343.31c-5.523,0-10,4.477-10,10s4.477,10,10,10h47.537c5.523,0,10-4.477,10-10 S396.369,354.867,390.846,354.867z"></path> <path d="M431.75,354.867h-8.844c-5.523,0-10,4.477-10,10s4.477,10,10,10h8.844c5.523,0,10-4.477,10-10 S437.273,354.867,431.75,354.867z"></path> <path d="M390.846,205.624H343.31c-5.523,0-10,4.477-10,10s4.477,10,10,10h47.537c5.523,0,10-4.477,10-10 S396.369,205.624,390.846,205.624z"></path> <path d="M431.75,205.624h-8.844c-5.523,0-10,4.477-10,10s4.477,10,10,10h8.844c5.523,0,10-4.477,10-10 S437.273,205.624,431.75,205.624z"></path> </g> </g> </g></svg>