<svg xmlns="http://www.w3.org/2000/svg" xmlns:xlink="http://www.w3.org/1999/xlink" version="1.1" id="Layer_1" viewBox="0 0 502 502" xml:space="preserve" fill="#000000"><g id="SVGRepo_bgCarrier" stroke-width="0"></g><g id="SVGRepo_tracerCarrier" stroke-linecap="round" stroke-linejoin="round"></g><g id="SVGRepo_iconCarrier"> <g> <polygon style="fill:#CCD7EB;" points="385.358,330.53 38.318,330.53 38.318,492 381.743,492 385.358,331.333 "></polygon> <polygon style="fill:#4D93E8;" points="211.235,330.53 38.318,330.53 38.318,254.615 "></polygon> <polygon style="fill:#4D93E8;" points="384.153,330.53 211.235,330.53 211.235,254.615 "></polygon> <polygon style="fill:#CCD7EB;" points="381.743,492 463.683,492 456.091,154.6 389.334,154.6 "></polygon> <polygon style="fill:#4D93E8;" points="391.341,65.43 389.334,154.6 456.091,154.6 454.085,65.43 "></polygon> <g> <polygon style="fill:#CCD7EB;" points="452.838,10 392.588,10 391.341,65.43 454.085,65.43 "></polygon> <g> <path d="M335.952,367.525h-13.255c-5.522,0-10,4.477-10,10s4.478,10,10,10h13.255c5.522,0,10-4.477,10-10 S341.475,367.525,335.952,367.525z"></path> <path d="M279.318,367.525H88.928c-5.523,0-10,4.477-10,10s4.477,10,10,10h190.39c5.522,0,10-4.477,10-10 S284.84,367.525,279.318,367.525z"></path> <path d="M462.835,9.775C462.713,4.341,458.274,0,452.838,0h-60.25c-5.436,0-9.875,4.341-9.997,9.775L375.703,315.9 l-160.447-70.441c-3.093-1.359-6.66-1.063-9.488,0.784c-2.827,1.847-4.532,4.996-4.532,8.373v60.604l-158.897-69.76 c-3.091-1.357-6.66-1.063-9.488,0.784c-2.827,1.847-4.532,4.996-4.532,8.373V492c0,5.523,4.477,10,10,10h425.365 c2.691,0,5.269-1.084,7.15-3.009c1.881-1.924,2.907-4.526,2.847-7.216L462.835,9.775z M401.118,75.43h43.189l1.556,69.17h-46.302 L401.118,75.43z M402.365,20h40.695l0.797,35.43h-42.289L402.365,20z M336.497,320.53H221.235v-50.603L336.497,320.53z M163.58,320.53H48.318v-50.603L163.58,320.53z M48.318,340.53h162.917h163.913L371.965,482H48.318V340.53z M391.97,482 l7.142-317.4h47.202l7.142,317.4H391.97z"></path> </g> </g> </g> </g></svg>