<svg xmlns="http://www.w3.org/2000/svg" xmlns:xlink="http://www.w3.org/1999/xlink" version="1.1" id="Layer_1" viewBox="0 0 502 502" xml:space="preserve" fill="#000000"><g id="SVGRepo_bgCarrier" stroke-width="0"></g><g id="SVGRepo_tracerCarrier" stroke-linecap="round" stroke-linejoin="round"></g><g id="SVGRepo_iconCarrier"> <g> <rect x="86.969" y="10" style="fill:#CCD7EB;" width="328.063" height="482"></rect> <rect x="216.464" y="386.01" style="fill:#4D93E8;" width="69.072" height="105.99"></rect> <g> <g> <rect x="143.749" y="285.909" style="fill:#4D93E8;" width="34.489" height="62.248"></rect> <rect x="178.237" y="285.909" style="fill:#4D93E8;" width="34.489" height="62.248"></rect> </g> <g> <rect x="289.274" y="285.909" style="fill:#4D93E8;" width="34.489" height="62.248"></rect> <rect x="323.763" y="285.909" style="fill:#4D93E8;" width="34.489" height="62.248"></rect> </g> </g> <g> <g> <rect x="143.749" y="172.349" style="fill:#4D93E8;" width="34.489" height="62.248"></rect> <rect x="178.237" y="172.349" style="fill:#4D93E8;" width="34.489" height="62.248"></rect> </g> <g> <rect x="289.274" y="172.349" style="fill:#4D93E8;" width="34.489" height="62.248"></rect> <rect x="323.763" y="172.349" style="fill:#4D93E8;" width="34.489" height="62.248"></rect> </g> </g> <g> <g> <rect x="143.749" y="62.154" style="fill:#4D93E8;" width="34.489" height="62.248"></rect> <rect x="178.237" y="62.154" style="fill:#4D93E8;" width="34.489" height="62.248"></rect> </g> <g> <rect x="289.274" y="62.154" style="fill:#4D93E8;" width="34.489" height="62.248"></rect> <rect x="323.763" y="62.154" style="fill:#4D93E8;" width="34.489" height="62.248"></rect> </g> </g> <g> <path d="M415.031,502c5.522,0,10-4.477,10-10V10c0-5.523-4.478-10-10-10H86.969c-5.522,0-10,4.477-10,10v482 c0,5.523,4.478,10,10,10H415.031z M226.464,482v-85.99h49.072V482H226.464z M405.031,482H295.536v-95.99c0-5.523-4.478-10-10-10 h-69.072c-5.522,0-10,4.477-10,10V482H96.969V20h308.063V482z"></path> <path d="M143.749,275.909c-5.522,0-10,4.477-10,10v52.248h-8.507c-5.522,0-10,4.477-10,10s4.478,10,10,10h105.99 c5.522,0,10-4.477,10-10s-4.478-10-10-10h-8.507v-52.248c0-5.523-4.478-10-10-10H143.749z M202.726,338.157h-14.488v-42.248 h14.488V338.157z M153.749,295.909h14.488v42.248h-14.488V295.909z"></path> <path d="M289.274,275.909c-5.522,0-10,4.477-10,10v52.248h-8.507c-5.522,0-10,4.477-10,10s4.478,10,10,10h105.99 c5.522,0,10-4.477,10-10s-4.478-10-10-10h-8.507v-52.248c0-5.523-4.478-10-10-10H289.274z M348.251,338.157h-14.488v-42.248 h14.488V338.157z M299.274,295.909h14.488v42.248h-14.488V295.909z"></path> <path d="M143.749,162.349c-5.522,0-10,4.477-10,10v52.248h-8.507c-5.522,0-10,4.477-10,10s4.478,10,10,10h105.99 c5.522,0,10-4.477,10-10s-4.478-10-10-10h-8.507v-52.248c0-5.523-4.478-10-10-10H143.749z M202.726,224.597h-14.488v-42.248 h14.488V224.597z M153.749,182.349h14.488v42.248h-14.488V182.349z"></path> <path d="M289.274,162.349c-5.522,0-10,4.477-10,10v52.248h-8.507c-5.522,0-10,4.477-10,10s4.478,10,10,10h105.99 c5.522,0,10-4.477,10-10s-4.478-10-10-10h-8.507v-52.248c0-5.523-4.478-10-10-10H289.274z M348.251,224.597h-14.488v-42.248 h14.488V224.597z M299.274,182.349h14.488v42.248h-14.488V182.349z"></path> <path d="M143.749,52.154c-5.522,0-10,4.477-10,10v52.248h-8.507c-5.522,0-10,4.477-10,10s4.478,10,10,10h105.99 c5.522,0,10-4.477,10-10s-4.478-10-10-10h-8.507V62.154c0-5.523-4.478-10-10-10H143.749z M202.726,114.401h-14.488V72.154h14.488 V114.401z M153.749,72.154h14.488v42.248h-14.488V72.154z"></path> <path d="M289.274,52.154c-5.522,0-10,4.477-10,10v52.248h-8.507c-5.522,0-10,4.477-10,10s4.478,10,10,10h105.99 c5.522,0,10-4.477,10-10s-4.478-10-10-10h-8.507V62.154c0-5.523-4.478-10-10-10H289.274z M348.251,114.401h-14.488V72.154h14.488 V114.401z M299.274,72.154h14.488v42.248h-14.488V72.154z"></path> <path d="M241.747,403.77c-5.522,0-10,4.477-10,10v2.523c0,5.523,4.478,10,10,10s10-4.477,10-10v-2.523 C251.747,408.247,247.27,403.77,241.747,403.77z"></path> <path d="M241.747,432.37c-5.522,0-10,4.477-10,10v24.394c0,5.523,4.478,10,10,10s10-4.477,10-10V442.37 C251.747,436.847,247.27,432.37,241.747,432.37z"></path> </g> </g> </g></svg>