<svg xmlns="http://www.w3.org/2000/svg" xmlns:xlink="http://www.w3.org/1999/xlink" version="1.1" id="Layer_1" viewBox="0 0 502 502" xml:space="preserve" fill="#000000"><g id="SVGRepo_bgCarrier" stroke-width="0"></g><g id="SVGRepo_tracerCarrier" stroke-linecap="round" stroke-linejoin="round"></g><g id="SVGRepo_iconCarrier"> <g> <rect x="47" y="85.774" style="fill:#CCD7EB;" width="159" height="96.651"></rect> <rect x="296" y="85.774" style="fill:#4D93E8;" width="159" height="96.651"></rect> <g> <path d="M492,75.774H10c-5.523,0-10,4.478-10,10v330.451c0,5.522,4.477,10,10,10s10-4.478,10-10V192.425h462v223.801 c0,5.522,4.477,10,10,10s10-4.478,10-10V85.774C502,80.252,497.523,75.774,492,75.774z M445,172.425H306v-76.65h139V172.425z M57,172.425v-76.65h139v76.65H57z M216,95.774h70v76.65h-70V95.774z M20,95.774h17v76.65H20V95.774z M465,172.425v-76.65h17 v76.65H465z"></path> <path d="M409,158.925h5c5.523,0,10-4.478,10-10s-4.477-10-10-10h-5c-5.523,0-10,4.478-10,10S403.477,158.925,409,158.925z"></path> <path d="M335,158.925h42c5.523,0,10-4.478,10-10s-4.477-10-10-10h-42c-5.523,0-10,4.478-10,10S329.477,158.925,335,158.925z"></path> <path d="M370.005,128.923c0.001,0,0.003,0,0.004,0l8.99-0.004c5.523-0.002,9.998-4.481,9.996-10.004 c-0.002-5.521-4.479-9.996-10-9.996c-0.001,0-0.003,0-0.004,0l-8.99,0.004c-5.523,0.002-9.998,4.481-9.996,10.004 C360.007,124.448,364.484,128.923,370.005,128.923z"></path> </g> </g> </g></svg>