<svg xmlns="http://www.w3.org/2000/svg" xmlns:xlink="http://www.w3.org/1999/xlink" version="1.1" id="Layer_1" viewBox="0 0 502 502" xml:space="preserve" fill="#000000"><g id="SVGRepo_bgCarrier" stroke-width="0"></g><g id="SVGRepo_tracerCarrier" stroke-linecap="round" stroke-linejoin="round"></g><g id="SVGRepo_iconCarrier"> <g> <rect x="164.402" y="45.87" transform="matrix(0.7071 0.7071 -0.7071 0.7071 167.1849 -138.685)" style="fill:#4D93E8;" width="173.195" height="173.195"></rect> <g> <rect x="202.974" y="84.442" transform="matrix(0.7071 0.7071 -0.7071 0.7071 167.1849 -138.685)" style="fill:#CCD7EB;" width="96.052" height="96.052"></rect> <path d="M251,210.387c-2.559,0-5.119-0.977-7.071-2.929l-67.919-67.919c-3.905-3.905-3.905-10.237,0-14.143l67.919-67.919 c3.905-3.904,10.237-3.904,14.143,0l67.919,67.919c3.905,3.905,3.905,10.237,0,14.143l-67.919,67.919 C256.119,209.41,253.559,210.387,251,210.387z M197.223,132.468L251,186.244l53.777-53.776L251,78.691L197.223,132.468z"></path> </g> <path d="M383.467,132.468c0-2.652-1.054-5.195-2.929-7.071L258.071,2.929C256.196,1.054,253.652,0,251,0s-5.196,1.054-7.071,2.929 L121.461,125.396c-1.875,1.876-2.929,4.419-2.929,7.071s1.054,5.195,2.929,7.071L241,259.077V492c0,5.522,4.477,10,10,10 s10-4.478,10-10V259.077l119.539-119.538C382.414,137.663,383.467,135.12,383.467,132.468z M251,240.792L142.675,132.468 L251,24.143l108.325,108.325L251,240.792z"></path> <g> <path d="M248.958,117.407c-1.501,0-3.026-0.339-4.461-1.056c-4.941-2.469-6.945-8.475-4.477-13.415l0.508-1.018 c2.467-4.941,8.472-6.947,13.415-4.478c4.941,2.469,6.945,8.475,4.477,13.415l-0.508,1.018 C256.16,115.38,252.627,117.407,248.958,117.407z"></path> </g> <g> <path d="M223.532,142.333c-2.706,0-5.402-1.091-7.374-3.242c-3.732-4.071-3.458-10.397,0.614-14.129l6.105-5.597 c4.071-3.732,10.397-3.457,14.128,0.613c3.732,4.071,3.458,10.397-0.614,14.129l-6.105,5.597 C228.367,141.464,225.945,142.333,223.532,142.333z"></path> </g> </g> </g></svg>